<svg width="1.6in" height="1.5in" viewBox="1888 898 1891 1793" xmlns="http://www.w3.org/2000/svg">
    <g fill="currentcolor" stroke="currentcolor" stroke-linejoin="bevel" stroke-width="63">
        <polyline points="2551 944 2834 1228 3118 944" />
        <polyline points="1984 944 2267 1228 2551 944" />
        <polyline points="3118 944 3401 1228 3685 944" />
        <polyline points="1984 1228 2267 1511 2551 1228" />
        <polyline points="2551 1228 2834 1511 3118 1228" />
        <polyline points="3118 1228 3401 1511 3685 1228" />
        <polyline points="1984 1511 2267 1795 2267 2645 2267 2645 2267 1795 2551 1511" />
        <polyline points="2551 1511 2834 1795 2834 2645 2834 2645 2834 1795 3118 1511" />
        <polyline points="3118 1511 3401 1795 3401 2645 3401 2645 3401 1795 3685 1511" />
    </g>
</svg>