<svg width="22.151" height="53" fill="currentcolor"
    stroke="currentcolor" stroke-width="1.3" xmlns="http://www.w3.org/2000/svg">
    <path
        d="m5.36 22.608-1.358 2.723c1.058 1.733 4.52 3.717 6.084 4.988.41.333 2.42 1.55 2.42 3.4 0 1.89-1.06 3.403-2.42 3.403l.682 2.193c2.495 0 4.313-.982 4.875-5.027.346-2.494-1.162-4.587-2.457-5.594zm12.474-.529c-2.853 3.16-7.77 4.691-10.582 6.766-1.535 1.132-2.39 2.835-2.277 5.443.227 3.93 3.259 5.027 5.79 5.027l-.679-2.193c-1.361 0-2.457-1.51-2.457-3.4 0-1.852 1.858-3.078 2.457-3.403 2.882-1.562 5.17-3.2 7.332-4.988 0 0 1.247-.681.416-3.252z" />
</svg>