<svg xmlns="http://www.w3.org/2000/svg" width="32.339" height="53" fill="currentcolor"
    stroke="currentcolor" stroke-width="1.3">
    <path
        d="M4 18.688C6.077 20.843 9.214 48.244 10.273 49h1.55l3.93-17.839S18.626 47.867 19.419 49h1.815c2.985-14.55 3.667-21.279 6.576-23.281-.717-.266-2.38.113-3.325 1.133-1.436 1.512-3.894 15.95-3.894 15.95L17.04 25.075h-2.344l-3.778 17.953L7.667 22.09c5.933-2.307 20.673-4.839 20.673-4.839v-3.364S6.57 7.691 5.134 4.969c0 1.323 0 3.478 1.133 4.724 1.852.719 16.442 5.67 16.442 5.67s-15.195 3.741-18.71 3.325z" />
</svg>