<svg xmlns="http://www.w3.org/2000/svg" width="32.416" height="53" fill="currentcolor"
    stroke="currentcolor" stroke-width="1.3">
    <path
        d="M4 18.121C6.155 20.465 9.821 48.17 10.917 49h1.626l7.294-19.2s3.704 17.008 4.498 18.256c1.209.377 3.514.944 3.514.944-2.948-2.57-6.349-24.34-6.349-24.34l-2.759.113-6.198 19.352L8.12 22.128c6.199-3.061 20.296-5.556 20.296-5.556v-3.364S6.646 7.048 5.211 4.327c0 1.322 0 3.477 1.133 4.724 1.852.718 16.479 5.632 16.479 5.632S7.25 19.104 4 18.12z" />
</svg>