<svg xmlns="http://www.w3.org/2000/svg" width="33.061" height="53" fill="currentcolor"
    stroke="currentcolor" stroke-width="1.3">
    <path
        d="M8.233 23.223c5.782-2.532 18.141-4.535 18.141-4.535v-2.797l-14.89-4.46 15.42-3.136c2.154-1.248 2.154-4.083 2.154-4.083-1.815 2.495-21.997 5.179-22.677 6.425v1.89l13.908 4.536S8.043 20.16 3.999 19.784C6.078 21.939 9.366 48.244 10.387 49h1.587l3.893-17.84S18.74 47.865 19.571 49h1.814c3.024-14.552 3.666-21.279 6.538-23.283-.642-.263-2.342.114-3.249 1.135-1.437 1.512-3.93 15.987-3.93 15.987L17.19 25.075h-2.344l-3.779 17.99S8.27 22.921 8.043 22.62z" />
</svg>