<svg xmlns="http://www.w3.org/2000/svg" width="32.419" height="53" fill="currentcolor"
    stroke="currentcolor" stroke-width="1.3">
    <path
        d="M4 19.633C6.192 21.94 9.292 48.205 10.388 49h1.625l7.295-19.239s3.704 17.084 4.497 18.294c1.21.416 3.515.945 3.515.945-2.948-2.57-6.35-24.34-6.35-24.34l-2.758.113-6.199 19.388-4.27-21.013c5.857-2.495 17.99-4.46 17.99-4.46v-2.797l-14.929-4.46 15.457-3.136c2.155-1.248 2.155-4.083 2.155-4.083-1.852 2.495-22.035 5.179-22.677 6.425v1.89l13.833 4.536S7.817 20.048 4 19.633z" />
</svg>