<svg fill="currentColor" aria-hidden="true" viewBox="0 0 20 20" xmlns="http://www.w3.org/2000/svg">
    <path
        d="M10 15a5 5 0 1 0 0-10 5 5 0 0 0 0 10zm0-11a1 1 0 0 0 1-1V1a1 1 0 0 0-2 0v2a1 1 0 0 0 1 1zm0 12a1 1 0 0 0-1 1v2a1 1 0 1 0 2 0v-2a1 1 0 0 0-1-1zM4.3 5.8a1 1 0 0 0 1.5-1.5L4.3 3A1 1 0 0 0 3 4.3l1.4 1.5zm11.4 8.4a1 1 0 0 0-1.5 1.5l1.5 1.4a1 1 0 0 0 1.4-1.4l-1.4-1.5zM4 10a1 1 0 0 0-1-1H1a1 1 0 0 0 0 2h2a1 1 0 0 0 1-1zm15-1h-2a1 1 0 1 0 0 2h2a1 1 0 0 0 0-2zM4.3 14.2 3 15.7A1 1 0 1 0 4.3 17l1.5-1.4a1 1 0 0 0-1.5-1.5zM15 6a1 1 0 0 0 .8-.2L17 4.3A1 1 0 1 0 15.7 3l-1.5 1.4A1 1 0 0 0 15 6z"
        fill="#fe9a00" />
</svg>