<svg xmlns="http://www.w3.org/2000/svg" viewBox="0 0 122.9 111.5">
    <path fill="b71616"
        d="m2.4 84.4 42.9-74.2.2-.3a23 23 0 0 1 7-7.2 17 17 0 0 1 9-2.7 16.8 16.8 0 0 1 9.2 2.7 22.8 22.8 0 0 1 7 7.3l.3.6 42.3 73.3.2.5a22.2 22.2 0 0 1 2.4 10.2 17.6 17.6 0 0 1-2.2 8.3 16 16 0 0 1-7 6.6l-.5.3a21.3 21.3 0 0 1-9.1 1.7H17a18 18 0 0 1-6.2-1.1 16.5 16.5 0 0 1-7.8-6.1 17.6 17.6 0 0 1-3-9.6 23 23 0 0 1 1.6-8.8 8.2 8.2 0 0 1 .7-1.5z"
        class="cls-1" />
    <path fill="#e21b1b"
        d="m9 88.8 43.1-74.6c5.3-8.3 13.6-8.5 19 0l42.4 73.7c3.3 6.8 1.7 16-9.4 15.7H17.6c-7.2.2-12-6.2-8.6-14.8z"
        class="cls-2" />
    <path fill="#fff"
        d="M57.6 82.7a5.5 5.5 0 0 1 3.4-1.6 5.8 5.8 0 0 1 2.4.4 5.8 5.8 0 0 1 2 1.3 5.5 5.5 0 0 1 1.7 3.5 6 6 0 0 1-.1 1.4 5.5 5.5 0 0 1-5.7 4.6 5.7 5.7 0 0 1-2.2-.5 5.6 5.6 0 0 1-2.8-3 5.7 5.7 0 0 1-.4-1.2 5.8 5.8 0 0 1 0-1.3 6.2 6.2 0 0 1 .5-2 4.6 4.6 0 0 1 1.1-1.6zm8.1-10.2c-.2 4.8-8.3 4.8-8.5 0-.8-8.2-2.9-29.4-2.8-37.1 0-2.4 2-3.8 4.5-4.4a12.8 12.8 0 0 1 5 0c2.7.6 4.7 2 4.7 4.5v.2l-2.9 36.8z"
        class="cls-3" />
</svg>