<svg xmlns="http://www.w3.org/2000/svg" width="31.923" height="53" fill="currentcolor"
    stroke="currentcolor" stroke-width="1.3">
    <path
        d="M4.15 20.54c2.118 2.155 4.196 27.175 5.254 27.93.908 0 2.57.53 2.57.53l3.894-17.801S18.74 47.867 19.533 49h1.852c3.024-14.513 3.667-21.241 6.539-23.244-.643-.264-2.343.113-3.25 1.133-1.437 1.512-3.932 15.912-3.932 15.912L17.19 25.113h-2.344l-3.778 17.954S8.044 23.3 7.818 22.997c3.098-1.928 7.028-1.361 17.876-6.161 2.042-1.852 2.042-6.01 2.042-6.01C25.542 15.893 6.003 20.504 4 20.087z" />
</svg>